<svg xmlns="http://www.w3.org/2000/svg" viewBox="0 0 512 512">
  <!-- Teal Paw Print to match Clinic Theme #0f766e -->
  <path fill="#0f766e" d="M226.5 69c-35.6 11.5-58.6 45-56.6 82.2 2 37.1 29.3 67.5 66.5 74 39.5 6.9 76.5-17.7 85.2-56.5 7.8-34.9-12.7-72.1-45.9-88-16.7-8-32.9-15.1-49.2-11.7zM78.3 150c-35 12.3-56.4 46.5-52.7 83.2 3.7 36.6 32.7 65 69.4 69.4 39.8 4.7 75.3-21.6 82.1-61.9 6.1-36-15.2-72.2-48.7-87.1-16.8-7.5-33.3-8.8-50.1-3.6zM433.7 150c-16.8-5.2-33.3-3.9-50.1 3.6-33.5 14.9-54.8 51.1-48.7 87.1 6.8 40.3 42.3 66.6 82.1 61.9 36.7-4.4 65.7-32.8 69.4-69.4 3.7-36.7-17.7-70.9-52.7-83.2zM256 224c-59.5 0-108.5 28.5-135 68.6-26.6 40.2-32.3 94.2-12.6 142.1 19.8 48.2 68.4 81.3 120.6 81.3s100.8-33.1 120.6-81.3c19.7-47.9 14-101.9-12.6-142.1-26.5-40.1-75.5-68.6-135-68.6z"/>
</svg>
